<svg width="15" height="11" viewBox="0 0 15 11" fill="none" xmlns="http://www.w3.org/2000/svg">
<path d="M7.49998 3.06824C6.37156 3.06824 5.45453 3.98527 5.45453 5.11369C5.45453 6.24211 6.37156 7.15914 7.49998 7.15914C8.6284 7.15914 9.54543 6.24211 9.54543 5.11369C9.54543 3.98527 8.62837 3.06824 7.49998 3.06824Z" fill="#50B3E3"/>
<path d="M7.5 0C4.0909 0 1.17955 2.12043 0 5.11363C1.17955 8.1068 4.0909 10.2273 7.5 10.2273C10.9125 10.2273 13.8204 8.1068 15 5.11363C13.8204 2.12043 10.9125 0 7.5 0ZM7.5 8.52269C5.61818 8.52269 4.0909 6.99541 4.0909 5.1136C4.0909 3.23178 5.61818 1.70453 7.5 1.70453C9.38182 1.70453 10.9091 3.23181 10.9091 5.11363C10.9091 6.99544 9.38182 8.52269 7.5 8.52269Z" fill="#50B3E3"/>
</svg>
